# xmcd
#
# Track frame offsets:
#	150
#	21371
#	41233
#	71450
#	91162
#	109297
#	125024
#	151860
#	165739
#	181811
#	198551
#	219614
#
# Disc length: 3137 seconds
#
# Revision: 0
# Processed by: cddbd v1.5.2PL0 Copyright (c) Steve Scherf et al.
# Submitted via: EasyCDDAExtractor 11.1.0.1
#
DISCID=a80c3f0c
DTITLE=Jones Bros - Oldschool
DYEAR=2005
DGENRE=Blues
TTITLE0=When you say your prayers
TTITLE1=I got everything
TTITLE2=Wrong In Their Hearts
TTITLE3=Blinding Light
TTITLE4=The Fame
TTITLE5=Jet Airliner
TTITLE6=Don't Say Goodbye
TTITLE7=A Wonderful Girl
TTITLE8=Jessie's Girl
TTITLE9=Hopeless
TTITLE10=Have You Heard The News
TTITLE11=Don't cry for a musicman
EXTD=
EXTT0=
EXTT1=
EXTT2=
EXTT3=
EXTT4=
EXTT5=
EXTT6=
EXTT7=
EXTT8=
EXTT9=
EXTT10=
EXTT11=
PLAYORDER=
